<svg width="71" height="101" viewBox="0 0 71 101" fill="none" xmlns="http://www.w3.org/2000/svg">
<rect x="0.581154" width="69.5812" height="72.948" rx="20" fill="#AEAFF7"/>
<path d="M25.4546 83.31C26.4646 83.31 27.3396 83.55 28.0796 84.03L27.8396 85.125L27.7046 85.155C27.0346 84.595 26.2646 84.315 25.3946 84.315C24.4446 84.315 23.7146 84.645 23.2046 85.305C22.6946 85.955 22.4396 86.91 22.4396 88.17C22.4396 89.44 22.6946 90.41 23.2046 91.08C23.7146 91.75 24.4346 92.085 25.3646 92.085C25.8046 92.085 26.2396 92.005 26.6696 91.845C27.1096 91.685 27.5096 91.46 27.8696 91.17L28.0196 91.245L27.9146 92.385C27.0446 92.865 26.1596 93.105 25.2596 93.105C23.9696 93.105 22.9696 92.69 22.2596 91.86C21.5496 91.02 21.1946 89.825 21.1946 88.275C21.1946 86.685 21.5646 85.46 22.3046 84.6C23.0446 83.74 24.0946 83.31 25.4546 83.31ZM31.8826 86.01C32.5326 86.01 33.0426 86.17 33.4126 86.49C33.7926 86.81 33.9826 87.25 33.9826 87.81C33.9826 87.98 33.9526 88.595 33.8926 89.655C33.8326 90.715 33.8026 91.335 33.8026 91.515C33.8026 91.735 33.8376 91.89 33.9076 91.98C33.9776 92.06 34.0976 92.1 34.2676 92.1C34.4176 92.1 34.5876 92.07 34.7776 92.01L34.8976 92.115L34.7776 92.79C34.4876 92.96 34.2026 93.06 33.9226 93.09C33.6126 93.06 33.3626 92.95 33.1726 92.76C32.9926 92.57 32.8976 92.31 32.8876 91.98H32.7826C32.2426 92.53 31.7076 92.905 31.1776 93.105C30.5076 93.105 29.9826 92.94 29.6026 92.61C29.2326 92.27 29.0476 91.81 29.0476 91.23C29.0476 90.79 29.1626 90.44 29.3926 90.18C29.6326 89.92 29.9826 89.735 30.4426 89.625L32.8726 89.055L32.8876 88.08C32.8876 87.69 32.7826 87.39 32.5726 87.18C32.3726 86.97 32.0826 86.865 31.7026 86.865C31.3626 86.865 31.0226 86.945 30.6826 87.105C30.3426 87.265 29.9776 87.515 29.5876 87.855L29.4676 87.795L29.3176 86.94C30.1476 86.32 31.0026 86.01 31.8826 86.01ZM30.6826 90.345C30.4826 90.405 30.3376 90.49 30.2476 90.6C30.1576 90.7 30.1126 90.855 30.1126 91.065C30.1126 91.395 30.2026 91.655 30.3826 91.845C30.5726 92.025 30.8226 92.115 31.1326 92.115C31.6826 92.115 32.2426 91.76 32.8126 91.05L32.8576 89.82L30.6826 90.345ZM37.7163 89.985L37.7913 93H36.6063L36.6963 90.075L36.6213 82.575L37.8063 82.47L37.7163 89.985ZM48.8473 88.335C48.8573 87.925 48.7623 87.605 48.5623 87.375C48.3623 87.145 48.0673 87.03 47.6773 87.03C47.0373 87.03 46.3723 87.375 45.6823 88.065L45.6523 90.015L45.7123 93H44.4973L44.5873 88.335C44.5973 87.925 44.5023 87.605 44.3023 87.375C44.1023 87.145 43.8073 87.03 43.4173 87.03C42.7873 87.03 42.1073 87.385 41.3773 88.095V89.985L41.4373 93H40.2523L40.3273 90.09L40.2673 86.205L41.3923 86.1V87.105H41.4823C42.1023 86.555 42.7373 86.2 43.3873 86.04C43.9473 86.04 44.4073 86.14 44.7673 86.34C45.1273 86.53 45.3823 86.81 45.5323 87.18H45.6223C46.2523 86.61 46.9273 86.23 47.6473 86.04C48.4073 86.04 48.9823 86.215 49.3723 86.565C49.7623 86.915 49.9523 87.415 49.9423 88.065L49.9123 90.015L49.9723 93H48.7723L48.8473 88.335Z" fill="#371B34"/>
<path d="M55.1346 35.6594C55.1121 35.4568 55.0896 35.2431 55.0558 35.0405C54.9996 34.5905 54.9546 34.1291 54.887 33.6678C54.4257 30.4048 53.2218 27.4119 51.3315 24.7902C49.7113 22.5286 47.6522 20.6946 45.2331 19.3444C43.039 18.118 40.6199 17.3529 38.032 17.0603C37.2894 16.9703 36.5243 16.9253 35.7817 16.9253C34.4652 16.9253 33.16 17.0603 31.8548 17.3304V17.3191L31.6635 17.3754C31.3598 17.4429 31.0672 17.5104 30.7634 17.5891C30.3809 17.6904 29.987 17.8142 29.6045 17.9379C29.2557 18.0392 28.9631 18.1292 28.6818 18.2305C25.6326 19.3219 22.9772 21.1559 20.7831 23.6876C18.5891 26.2079 17.1038 29.1221 16.35 32.3289C15.8211 34.5905 15.6861 36.8521 15.9337 39.0574C16.1925 41.3077 16.7663 43.4118 17.6439 45.3021C18.6003 47.3499 19.9055 49.1727 21.5145 50.7141C23.3148 52.4357 25.4301 53.7746 27.9842 54.8098C29.0982 55.2598 30.1896 55.4736 31.2022 55.6311C31.731 55.7437 32.2824 55.8337 32.8225 55.9012C33.0137 55.9237 33.1938 55.9462 33.385 55.9687C33.9701 56.07 34.7128 56.115 35.6016 56.115C35.9617 56.115 36.3105 56.1037 36.6368 56.0925L36.3668 56.205L37.5369 56.0475C38.032 56.0137 38.4258 55.9574 38.6283 55.9237L38.6846 55.9124C38.7184 55.9012 38.7409 55.8899 38.7634 55.8787C40.2486 55.6649 41.6776 55.3161 43.0053 54.821C44.7718 54.1572 46.4145 53.2683 47.866 52.1544C49.5988 50.8267 51.0727 49.2177 52.2204 47.3499C53.3681 45.5046 54.1557 43.5468 54.572 41.5103C54.707 40.8352 54.8083 40.1488 54.8983 39.4737C54.9433 39.1586 54.9883 38.8549 55.0333 38.5398C55.0446 38.4836 55.0558 38.416 55.0671 38.3598L55.0896 38.2585L55.1008 35.7269L55.1346 35.6594ZM39.6973 22.9337C41.16 22.9337 42.3752 24.1601 42.3639 25.6004C42.3527 27.0406 41.1375 28.267 39.6973 28.267C38.257 28.267 37.0419 27.0406 37.0419 25.6004C37.0531 24.1601 38.2683 22.9337 39.6973 22.9337ZM42.6565 51.9068C41.6438 53.4483 40.2936 54.5735 38.6621 55.2598C38.302 55.3048 37.9307 55.3498 37.5594 55.3836C36.2542 55.4961 34.904 55.4849 33.5201 55.3386C33.0363 55.2486 32.5637 55.1811 32.1024 55.1136C31.8548 55.0798 31.6073 55.046 31.3597 55.001C29.942 54.7085 28.5693 54.2584 27.2754 53.6734C25.8577 53.032 24.5412 52.2219 23.3598 51.2767C22.2796 50.4104 21.312 49.4427 20.4794 48.3851C19.478 47.1136 18.6453 45.7184 18.0152 44.2219C17.4301 42.8155 17.0363 41.4765 16.8113 40.1038C16.7325 39.5862 16.665 39.0461 16.5975 38.5173C16.5638 38.281 16.5413 38.0447 16.5075 37.8084V35.5806C16.5075 35.5694 16.5075 35.5694 16.5187 35.5581C16.53 35.5019 16.5525 35.4343 16.5525 35.3556C16.6763 33.8253 16.9688 32.3289 17.4189 30.9337C18.004 29.1221 18.8478 27.4119 19.9505 25.8479C21.2782 23.9576 22.9322 22.3149 24.8563 20.9759C26.409 19.8957 28.0743 19.0631 29.8183 18.478C30.1108 18.388 30.4146 18.3092 30.7184 18.2305C30.8647 18.1855 31.0222 18.1517 31.1685 18.1067C31.1235 18.433 31.0897 18.7481 31.0447 19.0631C30.9097 20.0758 30.7859 21.0434 30.6846 22.0111C30.4934 23.6876 30.3358 25.6904 30.5721 27.7382C30.7747 29.5159 31.2585 30.9899 32.0348 32.2614C32.7775 33.4765 33.7001 34.5117 34.7915 35.3218C35.8829 36.1432 37.0193 36.9421 38.1783 37.6734C38.5496 37.9097 38.9434 38.0785 39.3372 38.2473C39.6072 38.3598 39.866 38.4723 40.1136 38.6073C41.7338 39.4624 42.904 40.4864 43.6916 41.7465C44.4005 42.883 44.738 44.1769 44.693 45.5834C44.5917 47.8787 43.9166 49.994 42.6565 51.9068Z" fill="white"/>
<path d="M31.5645 41.6665H31.5195C29.7192 41.6665 28.3127 43.0392 28.2565 44.8733C28.2115 46.651 29.6517 48.1363 31.4745 48.1813C31.497 48.1813 31.5307 48.1813 31.5645 48.1813C33.3085 48.1813 34.7487 46.7298 34.7825 44.9408C34.7937 44.0856 34.4674 43.2643 33.8598 42.6454C33.2522 42.0266 32.4421 41.6778 31.5645 41.6665Z" fill="white"/>
</svg>
