<svg width="70" height="101" viewBox="0 0 70 101" fill="none" xmlns="http://www.w3.org/2000/svg">
<rect width="69.5812" height="72.948" rx="20" fill="#A0E3E2"/>
<path d="M21.1642 84.42L21.1342 87.765L22.7542 87.795L24.3142 87.75L24.4042 87.87L24.2992 88.785L22.6342 88.74L21.1192 88.755L21.1042 90L21.1642 93H19.9492L20.0242 90.105L19.9492 83.385H25.0642L25.1542 83.505L25.0492 84.465L22.8442 84.39L21.1642 84.42ZM28.2811 86.01C29.2111 86.01 29.9311 86.315 30.4411 86.925C30.9611 87.525 31.2211 88.375 31.2211 89.475C31.2211 90.635 30.9511 91.535 30.4111 92.175C29.8711 92.805 29.1011 93.12 28.1011 93.12C27.1611 93.12 26.4311 92.82 25.9111 92.22C25.4011 91.61 25.1461 90.755 25.1461 89.655C25.1461 88.495 25.4161 87.6 25.9561 86.97C26.5061 86.33 27.2811 86.01 28.2811 86.01ZM28.2061 86.85C27.5761 86.85 27.0961 87.065 26.7661 87.495C26.4361 87.925 26.2711 88.555 26.2711 89.385C26.2711 90.345 26.4311 91.065 26.7511 91.545C27.0811 92.025 27.5561 92.265 28.1761 92.265C28.8061 92.265 29.2861 92.055 29.6161 91.635C29.9461 91.215 30.1111 90.585 30.1111 89.745C30.1111 88.795 29.9461 88.075 29.6161 87.585C29.2961 87.095 28.8261 86.85 28.2061 86.85ZM35.5593 86.01C35.8693 86.01 36.1893 86.05 36.5193 86.13C36.8593 86.2 37.1543 86.295 37.4043 86.415L37.1943 87.45L37.0593 87.495C36.5393 87.155 36.0243 86.985 35.5143 86.985C34.9243 86.985 34.4643 87.21 34.1343 87.66C33.8043 88.11 33.6393 88.74 33.6393 89.55C33.6393 90.36 33.8093 91 34.1493 91.47C34.4993 91.93 34.9793 92.16 35.5893 92.16C35.8593 92.16 36.1393 92.115 36.4293 92.025C36.7293 91.935 37.0093 91.81 37.2693 91.65L37.4043 91.725L37.2693 92.73C36.6593 92.99 36.0493 93.12 35.4393 93.12C34.5293 93.12 33.8143 92.81 33.2943 92.19C32.7743 91.56 32.5143 90.7 32.5143 89.61C32.5143 88.5 32.7843 87.625 33.3243 86.985C33.8743 86.335 34.6193 86.01 35.5593 86.01ZM45.0058 92.115L44.8858 92.79C44.5958 92.96 44.3108 93.06 44.0308 93.09C43.7408 93.05 43.5058 92.95 43.3258 92.79C43.1558 92.62 43.0358 92.37 42.9658 92.04H42.8758C42.2758 92.58 41.6558 92.93 41.0158 93.09C40.2758 93.09 39.7108 92.915 39.3208 92.565C38.9408 92.215 38.7558 91.715 38.7658 91.065L38.7808 89.16L38.7358 86.205L39.9358 86.1L39.8458 90.78C39.8458 91.19 39.9408 91.51 40.1308 91.74C40.3308 91.97 40.6208 92.085 41.0008 92.085C41.6208 92.085 42.2408 91.785 42.8608 91.185V86.205L44.0008 86.1L43.9258 91.53C43.9258 91.74 43.9558 91.89 44.0158 91.98C44.0858 92.06 44.2008 92.1 44.3608 92.1C44.5208 92.1 44.6958 92.07 44.8858 92.01L45.0058 92.115ZM48.3772 86.025C48.9472 86.025 49.4972 86.135 50.0272 86.355L49.8622 87.33L49.6822 87.375C49.1822 87.045 48.7022 86.88 48.2422 86.88C47.9022 86.88 47.6272 86.975 47.4172 87.165C47.2072 87.355 47.1022 87.585 47.1022 87.855C47.1022 88.125 47.2072 88.345 47.4172 88.515C47.6372 88.675 47.9722 88.86 48.4222 89.07C48.8122 89.25 49.1222 89.415 49.3522 89.565C49.5922 89.705 49.7972 89.895 49.9672 90.135C50.1372 90.375 50.2222 90.67 50.2222 91.02C50.2222 91.39 50.1272 91.735 49.9372 92.055C49.7472 92.375 49.4672 92.635 49.0972 92.835C48.7272 93.025 48.2872 93.12 47.7772 93.12C47.0772 93.12 46.4122 92.955 45.7822 92.625L45.9322 91.605L46.0672 91.515C46.3472 91.755 46.6472 91.94 46.9672 92.07C47.2972 92.2 47.6072 92.265 47.8972 92.265C48.2672 92.265 48.5672 92.165 48.7972 91.965C49.0272 91.755 49.1422 91.51 49.1422 91.23C49.1422 90.96 49.0322 90.745 48.8122 90.585C48.6022 90.415 48.2722 90.225 47.8222 90.015C47.4322 89.835 47.1172 89.675 46.8772 89.535C46.6372 89.385 46.4322 89.185 46.2622 88.935C46.0922 88.685 46.0072 88.375 46.0072 88.005C46.0072 87.425 46.2172 86.95 46.6372 86.58C47.0672 86.21 47.6472 86.025 48.3772 86.025Z" fill="#371B34"/>
<path d="M26.0346 37.8985C26.3167 38.0877 26.6976 38.0118 26.8862 37.7309C26.9226 37.6767 26.9603 37.6239 26.9988 37.5711C27.1981 37.297 27.1375 36.9131 26.8634 36.7138C26.5894 36.5145 26.2055 36.575 26.0061 36.8491C25.9586 36.9145 25.912 36.9798 25.867 37.0468C25.6781 37.3282 25.7532 37.7095 26.0346 37.8985V37.8985Z" fill="white"/>
<path d="M53.8984 54.8862H48.9694C52.6689 51.7684 50.4893 45.68 45.6128 45.68H45.1777C45.4799 44.6114 45.2618 44.1838 44.4343 40.4611C43.6754 37.047 41.117 34.2063 37.6083 33.1838C38.4438 32.621 39.0967 31.808 39.4609 30.8534C39.5883 30.772 39.5551 30.7943 40.3387 29.7343C43.0628 26.0494 41.1939 21.1537 37.3272 19.7191V19.2889C37.3272 17.9353 36.226 16.834 34.8723 16.834C33.5186 16.834 32.4173 17.9353 32.4173 19.2889V19.7191C28.5494 21.154 26.6827 26.0507 29.4059 29.7343C30.1925 30.7983 30.1562 30.772 30.2837 30.8534C30.6476 31.8074 31.3 32.62 32.1347 33.1828C30.8298 33.5631 29.6077 34.2132 28.556 35.1012C28.297 35.3198 28.2643 35.707 28.483 35.966C28.7017 36.2249 29.0889 36.2577 29.3479 36.039C31.6117 34.1275 34.7439 33.4932 37.6376 34.4806C36.7487 37.8217 34.0346 40.3305 30.5905 40.9381L30.1263 41.0201L30.5614 39.0619C30.6349 38.731 30.4263 38.4032 30.0954 38.3296C29.7645 38.2561 29.4366 38.4648 29.3631 38.7956C29.2205 39.4374 28.4263 43.0113 28.2424 43.8387H27.5073C27.1684 43.8387 26.8936 44.1135 26.8936 44.4524C26.8936 44.7914 27.1684 45.0662 27.5073 45.0662H29.8134C31.6564 45.0662 33.3891 44.3485 34.6925 43.0452C34.8123 42.9253 34.8723 42.7683 34.8723 42.6112C34.8822 42.6112 34.8426 42.8357 35.052 43.0452C37.2995 45.2926 39.5713 45.0662 42.2372 45.0662C42.5761 45.0662 42.851 44.7914 42.851 44.4525C42.851 44.1136 42.5761 43.8388 42.2372 43.8388H41.502L40.6837 40.1563H43.086C43.2091 40.5711 43.1458 40.3244 44.027 44.2897C44.3254 45.6323 43.3021 46.9075 41.9271 46.9075H36.8125C37.4939 45.4771 36.4387 43.8388 34.8721 43.8388C34.5332 43.8388 34.2584 44.1136 34.2584 44.4525C34.2584 44.7914 34.5332 45.0662 34.8721 45.0662C35.1178 45.0662 35.3489 45.1621 35.5229 45.336C36.098 45.911 35.6951 46.9075 34.8723 46.9075H27.8173C26.6311 46.9075 25.6661 45.9424 25.6661 44.7563C25.6661 44.4347 25.6468 44.5989 26.5083 40.728C26.5946 40.34 26.7085 39.9568 26.8462 39.5889C26.965 39.2714 26.804 38.9177 26.4865 38.799C26.1691 38.6802 25.8155 38.8412 25.6966 39.1587C25.5391 39.5796 25.4089 40.0177 25.3102 40.4613C24.4779 44.201 24.2664 44.6204 24.568 45.68H24.1317C19.2789 45.68 17.0665 51.7571 20.7711 54.8862H15.8462C15.5072 54.8862 15.2324 55.161 15.2324 55.4999C15.2324 55.8389 15.5072 56.1137 15.8462 56.1137H53.8984C54.2373 56.1137 54.5121 55.8389 54.5121 55.4999C54.5121 55.161 54.2373 54.8862 53.8984 54.8862V54.8862ZM31.1898 29.1089C31.1898 25.7379 31.1726 25.8294 31.2413 25.422C31.8481 25.3793 32.384 25.024 32.6598 24.4725C32.7006 24.3906 32.7639 24.3214 32.8402 24.274C33.0108 24.1695 32.8031 24.1989 36.6414 24.1989C37.1633 24.1989 37.002 24.7233 37.7222 25.1702C37.96 25.316 38.2278 25.4021 38.5031 25.422C38.5755 25.851 38.5547 25.8012 38.5547 29.1089C38.5547 31.1394 36.9028 32.7913 34.8723 32.7913C32.8418 32.7913 31.1898 31.1394 31.1898 29.1089ZM29.219 54.8862C28.6903 54.8862 28.5448 54.1502 29.0392 53.9524C31.6199 52.9203 31.4536 52.9928 31.5302 52.9418C32.8312 52.0757 33.0771 51.8174 33.7572 51.8174C34.5267 51.8174 35.2071 52.3079 35.4504 53.0378L35.5175 53.239C35.6189 53.5433 35.937 53.7182 36.2486 53.6404L44.0784 51.6829V54.8862H29.219ZM25.6661 51.6829L29.1995 52.5662L28.5833 52.8127C27.7465 53.1474 27.3309 54.0515 27.5775 54.8861H25.6661V51.6829Z" fill="white"/>
</svg>
