<svg width="70" height="101" viewBox="0 0 70 101" fill="none" xmlns="http://www.w3.org/2000/svg">
<rect width="69.5812" height="72.948" rx="20" fill="#EF5DA8"/>
<path d="M24.6152 90L24.6452 93H23.4602L23.5202 90.105L23.5052 88.665L20.8352 88.65L18.3902 88.665L18.3752 90L18.4202 93H17.2352L17.2802 90.105L17.2352 83.385H18.4352L18.3902 87.645L20.9402 87.66L23.5052 87.645L23.4602 83.385H24.6752L24.6152 90ZM29.2511 86.01C29.9011 86.01 30.4111 86.17 30.7811 86.49C31.1611 86.81 31.3511 87.25 31.3511 87.81C31.3511 87.98 31.3211 88.595 31.2611 89.655C31.2011 90.715 31.1711 91.335 31.1711 91.515C31.1711 91.735 31.2061 91.89 31.2761 91.98C31.3461 92.06 31.4661 92.1 31.6361 92.1C31.7861 92.1 31.9561 92.07 32.1461 92.01L32.2661 92.115L32.1461 92.79C31.8561 92.96 31.5711 93.06 31.2911 93.09C30.9811 93.06 30.7311 92.95 30.5411 92.76C30.3611 92.57 30.2661 92.31 30.2561 91.98H30.1511C29.6111 92.53 29.0761 92.905 28.5461 93.105C27.8761 93.105 27.3511 92.94 26.9711 92.61C26.6011 92.27 26.4161 91.81 26.4161 91.23C26.4161 90.79 26.5311 90.44 26.7611 90.18C27.0011 89.92 27.3511 89.735 27.8111 89.625L30.2411 89.055L30.2561 88.08C30.2561 87.69 30.1511 87.39 29.9411 87.18C29.7411 86.97 29.4511 86.865 29.0711 86.865C28.7311 86.865 28.3911 86.945 28.0511 87.105C27.7111 87.265 27.3461 87.515 26.9561 87.855L26.8361 87.795L26.6861 86.94C27.5161 86.32 28.3711 86.01 29.2511 86.01ZM28.0511 90.345C27.8511 90.405 27.7061 90.49 27.6161 90.6C27.5261 90.7 27.4811 90.855 27.4811 91.065C27.4811 91.395 27.5711 91.655 27.7511 91.845C27.9411 92.025 28.1911 92.115 28.5011 92.115C29.0511 92.115 29.6111 91.76 30.1811 91.05L30.2261 89.82L28.0511 90.345ZM37.0348 86.055C37.8948 86.055 38.5548 86.34 39.0148 86.91C39.4748 87.48 39.7048 88.295 39.7048 89.355C39.7048 90.555 39.4148 91.485 38.8348 92.145C38.2548 92.795 37.4298 93.12 36.3598 93.12C35.9398 93.12 35.5048 93.075 35.0548 92.985L35.0848 95.775H33.9148L33.9898 90.09L33.9148 86.205L35.0548 86.1L35.0398 87.075H35.1448C35.4948 86.785 35.8098 86.565 36.0898 86.415C36.3698 86.265 36.6848 86.145 37.0348 86.055ZM36.5098 92.25C37.1698 92.25 37.6798 92.02 38.0398 91.56C38.3998 91.1 38.5798 90.445 38.5798 89.595C38.5798 88.765 38.4348 88.13 38.1448 87.69C37.8648 87.25 37.4598 87.03 36.9298 87.03C36.6198 87.03 36.3098 87.115 35.9998 87.285C35.6998 87.455 35.3798 87.72 35.0398 88.08L35.0248 89.985L35.0398 91.86C35.5298 92.12 36.0198 92.25 36.5098 92.25ZM44.6667 86.055C45.5267 86.055 46.1867 86.34 46.6467 86.91C47.1067 87.48 47.3367 88.295 47.3367 89.355C47.3367 90.555 47.0467 91.485 46.4667 92.145C45.8867 92.795 45.0617 93.12 43.9917 93.12C43.5717 93.12 43.1367 93.075 42.6867 92.985L42.7167 95.775H41.5467L41.6217 90.09L41.5467 86.205L42.6867 86.1L42.6717 87.075H42.7767C43.1267 86.785 43.4417 86.565 43.7217 86.415C44.0017 86.265 44.3167 86.145 44.6667 86.055ZM44.1417 92.25C44.8017 92.25 45.3117 92.02 45.6717 91.56C46.0317 91.1 46.2117 90.445 46.2117 89.595C46.2117 88.765 46.0667 88.13 45.7767 87.69C45.4967 87.25 45.0917 87.03 44.5617 87.03C44.2517 87.03 43.9417 87.115 43.6317 87.285C43.3317 87.455 43.0117 87.72 42.6717 88.08L42.6567 89.985L42.6717 91.86C43.1617 92.12 43.6517 92.25 44.1417 92.25ZM49.2584 86.97L50.9084 91.71H51.0134L52.7234 87.075L52.9484 86.13H54.0134L51.5534 92.76C51.3034 93.44 51.0334 93.975 50.7434 94.365C50.4634 94.755 50.1184 95.06 49.7084 95.28C49.3084 95.51 48.7784 95.705 48.1184 95.865H48.0134C47.8034 95.655 47.6384 95.42 47.5184 95.16L47.5484 95.025C48.3084 94.875 48.8884 94.66 49.2884 94.38C49.6984 94.11 50.0784 93.65 50.4284 93L47.9084 86.16L49.0334 86.085L49.2584 86.97Z" fill="#371B34"/>
<g clip-path="url(#clip0_2_450)">
<path d="M15 36.5C15 25.7303 23.7303 17 34.5 17C45.2697 17 54 25.7303 54 36.5C54 47.2697 45.2697 56 34.5 56C23.7303 56 15 47.2697 15 36.5Z" fill="white"/>
<path d="M28.7565 31.7689C28.7565 33.107 28.1134 34.1912 27.3199 34.1912C26.5264 34.1912 25.8826 33.107 25.8826 31.7689C25.8826 30.4308 26.5264 29.3474 27.3199 29.3474C28.1134 29.3474 28.7565 30.4316 28.7565 31.7689Z" fill="#EF5DA8"/>
<path d="M43.1212 31.7689C43.1212 33.107 42.4774 34.1912 41.6839 34.1912C40.8904 34.1912 40.2473 33.107 40.2473 31.7689C40.2473 30.4308 40.8904 29.3474 41.6839 29.3474C42.4774 29.3474 43.1212 30.4316 43.1212 31.7689Z" fill="#EF5DA8"/>
<path d="M21.3969 38.3437C22.14 44.9247 27.7212 50.0394 34.5001 50.0394C41.279 50.0394 46.8603 44.9247 47.6034 38.3437H21.3969Z" fill="#EF5DA8"/>
</g>
<defs>
<clipPath id="clip0_2_450">
<rect width="39" height="39" fill="white" transform="translate(15 17)"/>
</clipPath>
</defs>
</svg>
