<svg width="70" height="101" viewBox="0 0 70 101" fill="none" xmlns="http://www.w3.org/2000/svg">
<rect x="0.162308" width="69.5812" height="72.948" rx="20" fill="#F09E54"/>
<path d="M24.6862 89.115C25.3462 90.205 26.1762 91.405 27.1762 92.715L27.1612 92.865C26.8012 93.005 26.4312 93.095 26.0512 93.135L25.8862 93.03C25.0662 91.8 24.3312 90.6 23.6812 89.43H21.9262V90L21.9862 93H20.7712L20.8462 90.105L20.7712 83.385L23.7112 83.37C24.6512 83.37 25.3762 83.61 25.8862 84.09C26.4062 84.56 26.6662 85.235 26.6662 86.115C26.6662 86.775 26.4912 87.37 26.1412 87.9C25.8012 88.42 25.3162 88.825 24.6862 89.115ZM21.9412 88.41L23.7412 88.455C24.8612 88.135 25.4212 87.39 25.4212 86.22C25.4212 85.61 25.2562 85.155 24.9262 84.855C24.5962 84.545 24.1012 84.38 23.4412 84.36L21.9862 84.405L21.9412 88.41ZM28.8945 89.52V89.55C28.8945 90.39 29.0845 91.035 29.4645 91.485C29.8445 91.935 30.3845 92.16 31.0845 92.16C31.4345 92.16 31.7845 92.105 32.1345 91.995C32.4845 91.875 32.8045 91.71 33.0945 91.5L33.2145 91.59L33.0345 92.61C32.3345 92.95 31.6345 93.12 30.9345 93.12C29.9545 93.12 29.1845 92.81 28.6245 92.19C28.0645 91.56 27.7845 90.7 27.7845 89.61C27.7845 88.51 28.0645 87.635 28.6245 86.985C29.1845 86.335 29.9395 86.01 30.8895 86.01C31.6895 86.01 32.3095 86.24 32.7495 86.7C33.1895 87.15 33.4095 87.78 33.4095 88.59C33.4095 88.86 33.3895 89.115 33.3495 89.355L33.1995 89.505L28.8945 89.52ZM30.8895 86.85C30.3895 86.85 29.9695 87.015 29.6295 87.345C29.2995 87.665 29.0795 88.12 28.9695 88.71L32.2845 88.65L32.3145 88.44C32.3145 87.93 32.1895 87.54 31.9395 87.27C31.6995 86.99 31.3495 86.85 30.8895 86.85ZM36.4386 89.985L36.5136 93H35.3286L35.4186 90.075L35.3436 82.575L36.5286 82.47L36.4386 89.985ZM41.2396 86.01C41.8896 86.01 42.3996 86.17 42.7696 86.49C43.1496 86.81 43.3396 87.25 43.3396 87.81C43.3396 87.98 43.3096 88.595 43.2496 89.655C43.1896 90.715 43.1596 91.335 43.1596 91.515C43.1596 91.735 43.1946 91.89 43.2646 91.98C43.3346 92.06 43.4546 92.1 43.6246 92.1C43.7746 92.1 43.9446 92.07 44.1346 92.01L44.2546 92.115L44.1346 92.79C43.8446 92.96 43.5596 93.06 43.2796 93.09C42.9696 93.06 42.7196 92.95 42.5296 92.76C42.3496 92.57 42.2546 92.31 42.2446 91.98H42.1396C41.5996 92.53 41.0646 92.905 40.5346 93.105C39.8646 93.105 39.3396 92.94 38.9596 92.61C38.5896 92.27 38.4046 91.81 38.4046 91.23C38.4046 90.79 38.5196 90.44 38.7496 90.18C38.9896 89.92 39.3396 89.735 39.7996 89.625L42.2296 89.055L42.2446 88.08C42.2446 87.69 42.1396 87.39 41.9296 87.18C41.7296 86.97 41.4396 86.865 41.0596 86.865C40.7196 86.865 40.3796 86.945 40.0396 87.105C39.6996 87.265 39.3346 87.515 38.9446 87.855L38.8246 87.795L38.6746 86.94C39.5046 86.32 40.3596 86.01 41.2396 86.01ZM40.0396 90.345C39.8396 90.405 39.6946 90.49 39.6046 90.6C39.5146 90.7 39.4696 90.855 39.4696 91.065C39.4696 91.395 39.5596 91.655 39.7396 91.845C39.9296 92.025 40.1796 92.115 40.4896 92.115C41.0396 92.115 41.5996 91.76 42.1696 91.05L42.2146 89.82L40.0396 90.345ZM46.6233 86.73L48.0483 88.815L49.3533 86.745L49.6983 86.13H50.8083L48.6633 89.49L50.9583 92.94L49.6983 93.06L49.3683 92.355L47.8983 90.18L46.4583 92.415L46.1583 93H45.0483L47.2533 89.505L45.0633 86.175L46.3383 86.085L46.6233 86.73Z" fill="#371B34"/>
<path d="M50.1395 38.924C49.0338 38.3656 47.8054 38.0752 46.5992 38.0752C43.9748 38.0752 41.7635 39.4377 40.8254 41.6266C40.0771 43.3688 40.1776 46.0157 41.0599 47.635C41.6295 48.6848 42.9138 49.8016 44.8347 49.8016C45.2144 49.8016 45.6053 49.7569 45.9962 49.6787C47.0571 49.4554 48.5536 47.8695 48.911 46.6076C49.179 45.6583 48.1516 44.0389 47.0906 43.2795C47.0124 43.2237 46.9231 43.2237 46.8561 43.2237C46.7221 43.2237 46.052 43.246 45.7281 43.6592C45.6164 43.7932 45.4936 44.0389 45.5718 44.3963L45.5941 44.4856L45.6611 44.5415C46.3424 45.2004 46.6997 45.9933 46.5546 46.5182C46.454 46.8756 46.1413 47.1213 45.6164 47.2553C45.1139 47.166 44.3991 46.7416 44.1534 46.44C43.6956 45.8705 43.2823 44.4745 43.4722 43.7151C43.8072 42.3749 45.1697 41.4368 46.8002 41.4368C47.9282 41.4368 48.9333 41.917 49.5587 42.7546C50.5862 44.1394 51.3233 46.7751 50.7202 48.0817C49.9719 49.7234 47.8835 51.4321 45.8621 52.0575C45.3484 52.2139 44.8235 52.292 44.321 52.292C42.3554 52.292 40.4345 51.0747 38.9268 48.8747C37.1065 46.2278 37.0059 43.447 38.6253 40.8114C39.3065 39.7169 40.2447 38.7342 41.1604 37.7849C41.596 37.3382 42.0427 36.8803 42.4559 36.4112C45.2814 33.206 45.9626 29.5094 44.4996 25.4108C43.2488 21.8929 40.4904 19.7375 36.5257 19.1567C36.1572 19.1009 35.7886 19.0786 35.4201 19.0786C31.9245 19.0786 28.5853 21.3345 27.301 24.5508C25.9943 27.8231 27.0106 31.3968 29.825 33.4517C30.8971 34.2335 32.2819 34.6578 33.7114 34.6578C35.5765 34.6578 37.2852 33.9208 38.3126 32.6811C40.3005 30.2688 40.2893 27.5327 38.2679 25.7235C37.5867 25.1092 36.4029 24.8859 35.5206 24.8859C35.0739 24.8859 34.683 24.9417 34.3815 25.0311C33.6891 25.2544 32.1814 26.6616 32.1702 27.5662C32.1702 27.9124 32.3601 28.1804 32.7175 28.3033L32.7733 28.3256H32.8291C32.9743 28.3256 33.0637 28.2363 33.2312 28.0799C33.5774 27.7449 34.3033 27.0636 35.2973 27.0636C35.6658 27.0636 36.0567 27.1641 36.4364 27.354C36.7603 27.5215 36.8273 27.9236 36.8384 28.1581C36.8719 28.9622 36.3582 30.1237 35.4536 30.6709C34.951 30.9724 34.1805 31.1623 33.4434 31.1623C33.019 31.1623 32.6281 31.1064 32.3266 30.9836C31.2545 30.5815 30.5174 29.7216 30.227 28.549C29.8696 27.086 30.3163 25.4443 31.3773 24.2605C32.4383 23.0878 33.9124 22.4401 35.5318 22.4401C37.5085 22.4401 39.4071 23.4229 40.602 25.0757C42.1544 27.2088 42.3889 29.9561 41.2274 32.4131C40.0548 34.9147 37.7207 36.5006 34.9957 36.6681C34.8059 36.6792 34.6048 36.6792 34.4038 36.6792C32.952 36.6792 31.4443 36.3777 29.9925 36.0873C29.032 35.8975 28.0381 35.6965 27.0665 35.5848C26.6644 35.5401 26.2512 35.5178 25.8492 35.5178C20.6896 35.5178 16.2447 39.2925 15.4965 44.2846C14.7706 49.1538 18.0316 53.7215 22.9232 54.6932C23.4257 54.7937 23.9506 54.8495 24.4532 54.8495C27.7589 54.8495 30.629 52.7946 31.757 49.6117C32.9296 46.3172 31.5672 42.8886 28.6523 41.8053C28.0046 41.5708 27.234 41.448 26.4076 41.448C25.2908 41.448 24.1851 41.6713 23.2805 42.0622C22.1414 42.5648 21.1363 44.4968 21.2703 45.9486C21.4378 47.8919 22.3759 48.3721 23.2694 48.83L23.3699 48.8858C23.6826 49.0422 24.2633 49.232 24.8776 49.232C25.8268 49.232 26.4522 48.7965 26.6309 48.0036L26.6421 47.97C26.7761 46.6969 25.7151 46.1608 25.0116 45.7923C24.7882 45.6806 24.4085 45.4908 24.3862 45.3902C24.3862 45.2451 24.6877 45.1446 25.1121 45.1446C26.106 45.1446 27.4462 45.6471 27.8036 46.3619C28.2503 47.2776 28.362 48.8076 27.6807 49.8351C26.9101 50.9854 25.8827 51.5661 24.5984 51.5661C23.6379 51.5661 22.5546 51.2199 21.4713 50.5833C18.925 49.0645 18.0428 45.5801 19.4946 42.8105C20.9464 40.0408 23.3922 38.6671 26.5192 38.857C29.9366 39.058 32.4606 40.9454 33.8343 44.3181C34.147 45.0999 34.3815 45.9375 34.6048 46.7416C34.8952 47.8137 35.2079 48.9193 35.7105 49.9244C37.5532 53.5764 40.8031 55.5866 44.8682 55.5866C45.0134 55.5866 45.1697 55.5866 45.3149 55.5754C49.5364 55.4302 52.5852 53.286 54.1153 49.3772C55.6564 45.4238 53.9142 40.8337 50.1395 38.924Z" fill="white"/>
</svg>
